<?xml version="1.0" encoding="UTF-8"?>
<svg id="Layer_1" xmlns="http://www.w3.org/2000/svg" xmlns:rdf="http://www.w3.org/1999/02/22-rdf-syntax-ns#" xmlns:dc="http://purl.org/dc/elements/1.1/" xmlns:cc="http://creativecommons.org/ns#" version="1.1" viewBox="0 0 120 19.2">
  <!-- Generator: Adobe Illustrator 29.1.0, SVG Export Plug-In . SVG Version: 2.1.0 Build 142)  -->
  <defs>
    <style>
      .st0 {
        fill: #fff;
      }
    </style>
  </defs>
  <path class="st0" d="M114,0c3,0,6,2.2,5.8,5.4v1l-.2.8-.4.6-.4.8-1,1-1.3.6-2.2,1.2-.8.2,6.4,7.9h-12.2l-5.4-6.9v6.9h-10.1V0h21.7,0ZM102,4v3.3h5.8l.6-.2.6-.4.2-.4v-1.2l-.2-.4-.6-.6-.6-.2h-5.8M88.3,0v4.2h-15.1v3.5h13.6v3.8h-13.4v3.5h14.9v4.2h-25.2V0h25.2M43.4,0l5.8,7.7L54.9,0h7l-9.9,13.6v5.6h-11.3v-6.7L30.6,0h12.8M0,19.2h2.7V6.5l6.2,12.7h5.8l5.2-12.5v12.5h9.5V0h-10.6l-3.9,9L10.6,0H0v19.2"/>
</svg>